<svg id="Layer_1" enable-background="new 0 0 512 512" height="512" viewBox="0 0 512 512" width="512" xmlns="http://www.w3.org/2000/svg" xmlns:xlink="http://www.w3.org/1999/xlink"><linearGradient id="SVGID_1_" gradientUnits="userSpaceOnUse" x1="19.919" x2="492.081" y1="492.081" y2="19.919"><stop offset="0" stop-color="#ffe400"/><stop offset="1" stop-color="#eb5529"/></linearGradient><path d="m444.068 0h-376.136c-37.458 0-67.932 30.474-67.932 67.932v376.136c0 37.458 30.474 67.932 67.932 67.932h376.136c37.459 0 67.932-30.474 67.932-67.932v-376.136c0-37.458-30.473-67.932-67.932-67.932zm-99.945 403.667c5.263 5.261 5.263 13.792 0 19.053-2.629 2.632-6.079 3.947-9.526 3.947s-6.897-1.316-9.526-3.947l-157.194-157.194c-2.529-2.526-3.947-5.954-3.947-9.526s1.421-7 3.947-9.526l157.193-157.191c5.261-5.263 13.796-5.263 19.053 0 5.263 5.261 5.263 13.792 0 19.053l-147.665 147.664z" fill="url(#SVGID_1_)"/></svg>