<?xml version="1.0"?>
<svg xmlns="http://www.w3.org/2000/svg" xmlns:xlink="http://www.w3.org/1999/xlink" xmlns:svgjs="http://svgjs.com/svgjs" version="1.1" width="512" height="512" x="0" y="0" viewBox="0 0 64 64" style="enable-background:new 0 0 512 512" xml:space="preserve" class=""><g><g xmlns="http://www.w3.org/2000/svg" id="_x33_-Straight_Razor"><g><path d="m56.014843 15.5706129-.5400391-3.8398438c-.0771484-.546875-.5849609-.9331055-1.1289063-.8510742l-32.4368896 4.5524902-2.9312744-5.5759277c-.2456055-.4667969-.8105469-.6611328-1.2919922-.4482422l-5.4809561 2.4404297c-1.5112305.6723633-2.1933594 2.4492188-1.5205078 3.9609375l.505188 1.1346426-2.3938599.3355713c-.546875.0766602-.9282231.5820313-.851563 1.128418l.570313 4.0800781c.0366211.2631836.1762695.5004883.3886719.6606445.1743164.1313477.3857422.2011719.6015625.2011719.0463867 0 .0932617-.003418.1401367-.0097656l4.1323853-.5842285 12.3632193 27.7678242c1.1235352 2.5239258 3.6347656 4.1542969 6.3979511 4.1542969.9833984 0 1.9404297-.2041016 2.8447266-.6064453l4.5673828-2.0336914c.2519531-.1123047.4472656-.324707.5371094-.5859375.0908203-.2612305.0693359-.5483398-.0595703-.7929688l-15.4906655-29.4664936 7.1898823-1.0110474 3.7861328 1.7905273c.6875.3286133 1.4619141.5019531 2.2402344.5019531.1435547 0 .2880859-.0058594.4335938-.0175781l12.7207031-1.0600586c1.4228516-.1191406 2.7490234-.8256836 3.6367188-1.9384766.8876952-1.111328 1.267578-2.4916991 1.0703124-3.887206zm-45.6586924 5.6489248-.2929688-2.0981445 1.9725342-.2766724.8952026 2.0106812zm24.2133799 31.0249043c-.6464844.2875977-1.3300781.4335938-2.03125.4335938-1.9736347 0-3.7680683-1.1650391-4.5708027-2.9677734l-12.6689444-28.4545308c-.0003662-.0007935-.0001221-.001709-.0004883-.0025024l-1.7402344-3.9101563c-.0010376-.0023804-.0031128-.0040283-.0042114-.0064087l-1.0421753-2.3407583c-.2241211-.5039063.0029297-1.0961914.5068359-1.3203125l4.624999-2.0595703 20.5180683 39.0288086zm18.8125-34.0341816c-.5546875.6948242-1.3505859 1.1186523-2.2402344 1.1928711l-12.71875 1.0600586c-.5722656.0463867-1.1484375-.0576172-1.6503906-.2973633l-4.0605469-1.9199219c-.1347656-.0634766-.2802734-.0961914-.4277344-.0961914-.046875 0-.0927734.003418-.1396484.0097656l-8.192873 1.1518555-1.0512695-1.9985352 30.7334003-4.3134756.4003906 2.8500977c.1191407.8457022-.1123047 1.6840811-.6523437 2.3608389z" fill="#c59c5f" data-original="#000000" style="" class=""/><circle cx="18.064" cy="19.35" r="1" fill="#c59c5f" data-original="#000000" style="" class=""/></g></g></g></svg>
